<?xml version="1.0" encoding="utf-8" standalone="no"?>
<!DOCTYPE svg PUBLIC "-//W3C//DTD SVG 1.1//EN"
  "http://www.w3.org/Graphics/SVG/1.1/DTD/svg11.dtd">
<svg xmlns:xlink="http://www.w3.org/1999/xlink" width="432pt" height="288pt" viewBox="0 0 432 288" xmlns="http://www.w3.org/2000/svg" version="1.1">
 <metadata>
  <rdf:RDF xmlns:dc="http://purl.org/dc/elements/1.1/" xmlns:cc="http://creativecommons.org/ns#" xmlns:rdf="http://www.w3.org/1999/02/22-rdf-syntax-ns#">
   <cc:Work>
    <dc:type rdf:resource="http://purl.org/dc/dcmitype/StillImage"/>
    <dc:date>2023-08-02T13:26:02.635898</dc:date>
    <dc:format>image/svg+xml</dc:format>
    <dc:creator>
     <cc:Agent>
      <dc:title>Matplotlib v3.7.0, https://matplotlib.org/</dc:title>
     </cc:Agent>
    </dc:creator>
   </cc:Work>
  </rdf:RDF>
 </metadata>
 <defs>
  <style type="text/css">*{stroke-linejoin: round; stroke-linecap: butt}</style>
 </defs>
 <g id="figure_1">
  <g id="patch_1">
   <path d="M 0 288 
L 432 288 
L 432 0 
L 0 0 
z
" style="fill: #ffffff"/>
  </g>
  <g id="axes_1">
   <g id="patch_2">
    <path d="M 54 252 
L 388.8 252 
L 388.8 34.56 
L 54 34.56 
z
" style="fill: #ffffff"/>
   </g>
   <g id="PathCollection_1">
    <defs>
     <path id="m255a41bd3a" d="M 0 3 
C 0.795609 3 1.55874 2.683901 2.12132 2.12132 
C 2.683901 1.55874 3 0.795609 3 0 
C 3 -0.795609 2.683901 -1.55874 2.12132 -2.12132 
C 1.55874 -2.683901 0.795609 -3 0 -3 
C -0.795609 -3 -1.55874 -2.683901 -2.12132 -2.12132 
C -2.683901 -1.55874 -3 -0.795609 -3 0 
C -3 0.795609 -2.683901 1.55874 -2.12132 2.12132 
C -1.55874 2.683901 -0.795609 3 0 3 
z
" style="stroke: #008080"/>
    </defs>
    <g clip-path="url(#pf14223b2e4)">
     <use xlink:href="#m255a41bd3a" x="69.218182" y="199.176104" style="fill: #008080; stroke: #008080"/>
     <use xlink:href="#m255a41bd3a" x="73.900699" y="197.120007" style="fill: #008080; stroke: #008080"/>
     <use xlink:href="#m255a41bd3a" x="78.583217" y="229.958761" style="fill: #008080; stroke: #008080"/>
     <use xlink:href="#m255a41bd3a" x="83.265734" y="103.822524" style="fill: #008080; stroke: #008080"/>
     <use xlink:href="#m255a41bd3a" x="87.948252" y="200.517086" style="fill: #008080; stroke: #008080"/>
     <use xlink:href="#m255a41bd3a" x="92.630769" y="242.116364" style="fill: #008080; stroke: #008080"/>
     <use xlink:href="#m255a41bd3a" x="97.313287" y="171.160632" style="fill: #008080; stroke: #008080"/>
     <use xlink:href="#m255a41bd3a" x="101.995804" y="170.516884" style="fill: #008080; stroke: #008080"/>
     <use xlink:href="#m255a41bd3a" x="106.678322" y="181.705158" style="fill: #008080; stroke: #008080"/>
     <use xlink:href="#m255a41bd3a" x="111.360839" y="168.39232" style="fill: #008080; stroke: #008080"/>
     <use xlink:href="#m255a41bd3a" x="116.043357" y="118.830761" style="fill: #008080; stroke: #008080"/>
     <use xlink:href="#m255a41bd3a" x="120.725874" y="152.574564" style="fill: #008080; stroke: #008080"/>
     <use xlink:href="#m255a41bd3a" x="125.408392" y="135.353482" style="fill: #008080; stroke: #008080"/>
     <use xlink:href="#m255a41bd3a" x="130.090909" y="125.667771" style="fill: #008080; stroke: #008080"/>
     <use xlink:href="#m255a41bd3a" x="134.773427" y="129.169242" style="fill: #008080; stroke: #008080"/>
     <use xlink:href="#m255a41bd3a" x="139.455944" y="79.598178" style="fill: #008080; stroke: #008080"/>
     <use xlink:href="#m255a41bd3a" x="144.138462" y="114.537492" style="fill: #008080; stroke: #008080"/>
     <use xlink:href="#m255a41bd3a" x="148.820979" y="127.065621" style="fill: #008080; stroke: #008080"/>
     <use xlink:href="#m255a41bd3a" x="153.503497" y="132.384924" style="fill: #008080; stroke: #008080"/>
     <use xlink:href="#m255a41bd3a" x="158.186014" y="118.554638" style="fill: #008080; stroke: #008080"/>
     <use xlink:href="#m255a41bd3a" x="162.868531" y="114.318881" style="fill: #008080; stroke: #008080"/>
     <use xlink:href="#m255a41bd3a" x="167.551049" y="77.589766" style="fill: #008080; stroke: #008080"/>
     <use xlink:href="#m255a41bd3a" x="172.233566" y="110.942101" style="fill: #008080; stroke: #008080"/>
     <use xlink:href="#m255a41bd3a" x="176.916084" y="87.445274" style="fill: #008080; stroke: #008080"/>
     <use xlink:href="#m255a41bd3a" x="181.598601" y="90.873445" style="fill: #008080; stroke: #008080"/>
     <use xlink:href="#m255a41bd3a" x="186.281119" y="44.777915" style="fill: #008080; stroke: #008080"/>
     <use xlink:href="#m255a41bd3a" x="190.963636" y="64.230692" style="fill: #008080; stroke: #008080"/>
     <use xlink:href="#m255a41bd3a" x="195.646154" y="44.443636" style="fill: #008080; stroke: #008080"/>
     <use xlink:href="#m255a41bd3a" x="200.328671" y="72.292694" style="fill: #008080; stroke: #008080"/>
     <use xlink:href="#m255a41bd3a" x="205.011189" y="116.251255" style="fill: #008080; stroke: #008080"/>
     <use xlink:href="#m255a41bd3a" x="209.693706" y="79.977725" style="fill: #008080; stroke: #008080"/>
     <use xlink:href="#m255a41bd3a" x="214.376224" y="70.892911" style="fill: #008080; stroke: #008080"/>
     <use xlink:href="#m255a41bd3a" x="219.058741" y="137.338213" style="fill: #008080; stroke: #008080"/>
     <use xlink:href="#m255a41bd3a" x="223.741259" y="64.749267" style="fill: #008080; stroke: #008080"/>
     <use xlink:href="#m255a41bd3a" x="228.423776" y="85.34262" style="fill: #008080; stroke: #008080"/>
     <use xlink:href="#m255a41bd3a" x="233.106294" y="122.634774" style="fill: #008080; stroke: #008080"/>
     <use xlink:href="#m255a41bd3a" x="237.788811" y="129.187768" style="fill: #008080; stroke: #008080"/>
     <use xlink:href="#m255a41bd3a" x="242.471329" y="81.03453" style="fill: #008080; stroke: #008080"/>
     <use xlink:href="#m255a41bd3a" x="247.153846" y="65.587945" style="fill: #008080; stroke: #008080"/>
     <use xlink:href="#m255a41bd3a" x="251.836364" y="82.107928" style="fill: #008080; stroke: #008080"/>
     <use xlink:href="#m255a41bd3a" x="256.518881" y="84.554366" style="fill: #008080; stroke: #008080"/>
     <use xlink:href="#m255a41bd3a" x="261.201399" y="150.12571" style="fill: #008080; stroke: #008080"/>
     <use xlink:href="#m255a41bd3a" x="265.883916" y="81.002632" style="fill: #008080; stroke: #008080"/>
     <use xlink:href="#m255a41bd3a" x="270.566434" y="114.861783" style="fill: #008080; stroke: #008080"/>
     <use xlink:href="#m255a41bd3a" x="275.248951" y="94.696952" style="fill: #008080; stroke: #008080"/>
     <use xlink:href="#m255a41bd3a" x="279.931469" y="123.003689" style="fill: #008080; stroke: #008080"/>
     <use xlink:href="#m255a41bd3a" x="284.613986" y="86.991944" style="fill: #008080; stroke: #008080"/>
     <use xlink:href="#m255a41bd3a" x="289.296503" y="130.140664" style="fill: #008080; stroke: #008080"/>
     <use xlink:href="#m255a41bd3a" x="293.979021" y="121.17619" style="fill: #008080; stroke: #008080"/>
     <use xlink:href="#m255a41bd3a" x="298.661538" y="109.943453" style="fill: #008080; stroke: #008080"/>
     <use xlink:href="#m255a41bd3a" x="303.344056" y="87.823694" style="fill: #008080; stroke: #008080"/>
     <use xlink:href="#m255a41bd3a" x="308.026573" y="72.349883" style="fill: #008080; stroke: #008080"/>
     <use xlink:href="#m255a41bd3a" x="312.709091" y="121.662224" style="fill: #008080; stroke: #008080"/>
     <use xlink:href="#m255a41bd3a" x="317.391608" y="116.780302" style="fill: #008080; stroke: #008080"/>
     <use xlink:href="#m255a41bd3a" x="322.074126" y="116.220485" style="fill: #008080; stroke: #008080"/>
     <use xlink:href="#m255a41bd3a" x="326.756643" y="60.987623" style="fill: #008080; stroke: #008080"/>
     <use xlink:href="#m255a41bd3a" x="331.439161" y="132.404739" style="fill: #008080; stroke: #008080"/>
     <use xlink:href="#m255a41bd3a" x="336.121678" y="112.943747" style="fill: #008080; stroke: #008080"/>
     <use xlink:href="#m255a41bd3a" x="340.804196" y="136.55898" style="fill: #008080; stroke: #008080"/>
     <use xlink:href="#m255a41bd3a" x="345.486713" y="136.314111" style="fill: #008080; stroke: #008080"/>
     <use xlink:href="#m255a41bd3a" x="350.169231" y="137.161488" style="fill: #008080; stroke: #008080"/>
     <use xlink:href="#m255a41bd3a" x="354.851748" y="178.665556" style="fill: #008080; stroke: #008080"/>
     <use xlink:href="#m255a41bd3a" x="359.534266" y="155.709537" style="fill: #008080; stroke: #008080"/>
     <use xlink:href="#m255a41bd3a" x="364.216783" y="179.104066" style="fill: #008080; stroke: #008080"/>
     <use xlink:href="#m255a41bd3a" x="368.899301" y="163.993048" style="fill: #008080; stroke: #008080"/>
     <use xlink:href="#m255a41bd3a" x="373.581818" y="149.528841" style="fill: #008080; stroke: #008080"/>
    </g>
   </g>
   <g id="matplotlib.axis_1">
    <g id="xtick_1">
     <g id="line2d_1">
      <defs>
       <path id="m5a71b2aec0" d="M 0 0 
L 0 3.5 
" style="stroke: #000000; stroke-width: 0.8"/>
      </defs>
      <g>
       <use xlink:href="#m5a71b2aec0" x="78.583217" y="252" style="stroke: #000000; stroke-width: 0.8"/>
      </g>
     </g>
     <g id="text_1">
      <!-- 1960 -->
      <g transform="translate(65.858217 266.598437) scale(0.1 -0.1)">
       <defs>
        <path id="DejaVuSans-31" d="M 794 531 
L 1825 531 
L 1825 4091 
L 703 3866 
L 703 4441 
L 1819 4666 
L 2450 4666 
L 2450 531 
L 3481 531 
L 3481 0 
L 794 0 
L 794 531 
z
" transform="scale(0.015625)"/>
        <path id="DejaVuSans-39" d="M 703 97 
L 703 672 
Q 941 559 1184 500 
Q 1428 441 1663 441 
Q 2288 441 2617 861 
Q 2947 1281 2994 2138 
Q 2813 1869 2534 1725 
Q 2256 1581 1919 1581 
Q 1219 1581 811 2004 
Q 403 2428 403 3163 
Q 403 3881 828 4315 
Q 1253 4750 1959 4750 
Q 2769 4750 3195 4129 
Q 3622 3509 3622 2328 
Q 3622 1225 3098 567 
Q 2575 -91 1691 -91 
Q 1453 -91 1209 -44 
Q 966 3 703 97 
z
M 1959 2075 
Q 2384 2075 2632 2365 
Q 2881 2656 2881 3163 
Q 2881 3666 2632 3958 
Q 2384 4250 1959 4250 
Q 1534 4250 1286 3958 
Q 1038 3666 1038 3163 
Q 1038 2656 1286 2365 
Q 1534 2075 1959 2075 
z
" transform="scale(0.015625)"/>
        <path id="DejaVuSans-36" d="M 2113 2584 
Q 1688 2584 1439 2293 
Q 1191 2003 1191 1497 
Q 1191 994 1439 701 
Q 1688 409 2113 409 
Q 2538 409 2786 701 
Q 3034 994 3034 1497 
Q 3034 2003 2786 2293 
Q 2538 2584 2113 2584 
z
M 3366 4563 
L 3366 3988 
Q 3128 4100 2886 4159 
Q 2644 4219 2406 4219 
Q 1781 4219 1451 3797 
Q 1122 3375 1075 2522 
Q 1259 2794 1537 2939 
Q 1816 3084 2150 3084 
Q 2853 3084 3261 2657 
Q 3669 2231 3669 1497 
Q 3669 778 3244 343 
Q 2819 -91 2113 -91 
Q 1303 -91 875 529 
Q 447 1150 447 2328 
Q 447 3434 972 4092 
Q 1497 4750 2381 4750 
Q 2619 4750 2861 4703 
Q 3103 4656 3366 4563 
z
" transform="scale(0.015625)"/>
        <path id="DejaVuSans-30" d="M 2034 4250 
Q 1547 4250 1301 3770 
Q 1056 3291 1056 2328 
Q 1056 1369 1301 889 
Q 1547 409 2034 409 
Q 2525 409 2770 889 
Q 3016 1369 3016 2328 
Q 3016 3291 2770 3770 
Q 2525 4250 2034 4250 
z
M 2034 4750 
Q 2819 4750 3233 4129 
Q 3647 3509 3647 2328 
Q 3647 1150 3233 529 
Q 2819 -91 2034 -91 
Q 1250 -91 836 529 
Q 422 1150 422 2328 
Q 422 3509 836 4129 
Q 1250 4750 2034 4750 
z
" transform="scale(0.015625)"/>
       </defs>
       <use xlink:href="#DejaVuSans-31"/>
       <use xlink:href="#DejaVuSans-39" x="63.623047"/>
       <use xlink:href="#DejaVuSans-36" x="127.246094"/>
       <use xlink:href="#DejaVuSans-30" x="190.869141"/>
      </g>
     </g>
    </g>
    <g id="xtick_2">
     <g id="line2d_2">
      <g>
       <use xlink:href="#m5a71b2aec0" x="125.408392" y="252" style="stroke: #000000; stroke-width: 0.8"/>
      </g>
     </g>
     <g id="text_2">
      <!-- 1970 -->
      <g transform="translate(112.683392 266.598437) scale(0.1 -0.1)">
       <defs>
        <path id="DejaVuSans-37" d="M 525 4666 
L 3525 4666 
L 3525 4397 
L 1831 0 
L 1172 0 
L 2766 4134 
L 525 4134 
L 525 4666 
z
" transform="scale(0.015625)"/>
       </defs>
       <use xlink:href="#DejaVuSans-31"/>
       <use xlink:href="#DejaVuSans-39" x="63.623047"/>
       <use xlink:href="#DejaVuSans-37" x="127.246094"/>
       <use xlink:href="#DejaVuSans-30" x="190.869141"/>
      </g>
     </g>
    </g>
    <g id="xtick_3">
     <g id="line2d_3">
      <g>
       <use xlink:href="#m5a71b2aec0" x="172.233566" y="252" style="stroke: #000000; stroke-width: 0.8"/>
      </g>
     </g>
     <g id="text_3">
      <!-- 1980 -->
      <g transform="translate(159.508566 266.598437) scale(0.1 -0.1)">
       <defs>
        <path id="DejaVuSans-38" d="M 2034 2216 
Q 1584 2216 1326 1975 
Q 1069 1734 1069 1313 
Q 1069 891 1326 650 
Q 1584 409 2034 409 
Q 2484 409 2743 651 
Q 3003 894 3003 1313 
Q 3003 1734 2745 1975 
Q 2488 2216 2034 2216 
z
M 1403 2484 
Q 997 2584 770 2862 
Q 544 3141 544 3541 
Q 544 4100 942 4425 
Q 1341 4750 2034 4750 
Q 2731 4750 3128 4425 
Q 3525 4100 3525 3541 
Q 3525 3141 3298 2862 
Q 3072 2584 2669 2484 
Q 3125 2378 3379 2068 
Q 3634 1759 3634 1313 
Q 3634 634 3220 271 
Q 2806 -91 2034 -91 
Q 1263 -91 848 271 
Q 434 634 434 1313 
Q 434 1759 690 2068 
Q 947 2378 1403 2484 
z
M 1172 3481 
Q 1172 3119 1398 2916 
Q 1625 2713 2034 2713 
Q 2441 2713 2670 2916 
Q 2900 3119 2900 3481 
Q 2900 3844 2670 4047 
Q 2441 4250 2034 4250 
Q 1625 4250 1398 4047 
Q 1172 3844 1172 3481 
z
" transform="scale(0.015625)"/>
       </defs>
       <use xlink:href="#DejaVuSans-31"/>
       <use xlink:href="#DejaVuSans-39" x="63.623047"/>
       <use xlink:href="#DejaVuSans-38" x="127.246094"/>
       <use xlink:href="#DejaVuSans-30" x="190.869141"/>
      </g>
     </g>
    </g>
    <g id="xtick_4">
     <g id="line2d_4">
      <g>
       <use xlink:href="#m5a71b2aec0" x="219.058741" y="252" style="stroke: #000000; stroke-width: 0.8"/>
      </g>
     </g>
     <g id="text_4">
      <!-- 1990 -->
      <g transform="translate(206.333741 266.598437) scale(0.1 -0.1)">
       <use xlink:href="#DejaVuSans-31"/>
       <use xlink:href="#DejaVuSans-39" x="63.623047"/>
       <use xlink:href="#DejaVuSans-39" x="127.246094"/>
       <use xlink:href="#DejaVuSans-30" x="190.869141"/>
      </g>
     </g>
    </g>
    <g id="xtick_5">
     <g id="line2d_5">
      <g>
       <use xlink:href="#m5a71b2aec0" x="265.883916" y="252" style="stroke: #000000; stroke-width: 0.8"/>
      </g>
     </g>
     <g id="text_5">
      <!-- 2000 -->
      <g transform="translate(253.158916 266.598437) scale(0.1 -0.1)">
       <defs>
        <path id="DejaVuSans-32" d="M 1228 531 
L 3431 531 
L 3431 0 
L 469 0 
L 469 531 
Q 828 903 1448 1529 
Q 2069 2156 2228 2338 
Q 2531 2678 2651 2914 
Q 2772 3150 2772 3378 
Q 2772 3750 2511 3984 
Q 2250 4219 1831 4219 
Q 1534 4219 1204 4116 
Q 875 4013 500 3803 
L 500 4441 
Q 881 4594 1212 4672 
Q 1544 4750 1819 4750 
Q 2544 4750 2975 4387 
Q 3406 4025 3406 3419 
Q 3406 3131 3298 2873 
Q 3191 2616 2906 2266 
Q 2828 2175 2409 1742 
Q 1991 1309 1228 531 
z
" transform="scale(0.015625)"/>
       </defs>
       <use xlink:href="#DejaVuSans-32"/>
       <use xlink:href="#DejaVuSans-30" x="63.623047"/>
       <use xlink:href="#DejaVuSans-30" x="127.246094"/>
       <use xlink:href="#DejaVuSans-30" x="190.869141"/>
      </g>
     </g>
    </g>
    <g id="xtick_6">
     <g id="line2d_6">
      <g>
       <use xlink:href="#m5a71b2aec0" x="312.709091" y="252" style="stroke: #000000; stroke-width: 0.8"/>
      </g>
     </g>
     <g id="text_6">
      <!-- 2010 -->
      <g transform="translate(299.984091 266.598437) scale(0.1 -0.1)">
       <use xlink:href="#DejaVuSans-32"/>
       <use xlink:href="#DejaVuSans-30" x="63.623047"/>
       <use xlink:href="#DejaVuSans-31" x="127.246094"/>
       <use xlink:href="#DejaVuSans-30" x="190.869141"/>
      </g>
     </g>
    </g>
    <g id="xtick_7">
     <g id="line2d_7">
      <g>
       <use xlink:href="#m5a71b2aec0" x="359.534266" y="252" style="stroke: #000000; stroke-width: 0.8"/>
      </g>
     </g>
     <g id="text_7">
      <!-- 2020 -->
      <g transform="translate(346.809266 266.598437) scale(0.1 -0.1)">
       <use xlink:href="#DejaVuSans-32"/>
       <use xlink:href="#DejaVuSans-30" x="63.623047"/>
       <use xlink:href="#DejaVuSans-32" x="127.246094"/>
       <use xlink:href="#DejaVuSans-30" x="190.869141"/>
      </g>
     </g>
    </g>
    <g id="text_8">
     <!-- Year -->
     <g transform="translate(210.8125 280.276563) scale(0.1 -0.1)">
      <defs>
       <path id="DejaVuSans-59" d="M -13 4666 
L 666 4666 
L 1959 2747 
L 3244 4666 
L 3922 4666 
L 2272 2222 
L 2272 0 
L 1638 0 
L 1638 2222 
L -13 4666 
z
" transform="scale(0.015625)"/>
       <path id="DejaVuSans-65" d="M 3597 1894 
L 3597 1613 
L 953 1613 
Q 991 1019 1311 708 
Q 1631 397 2203 397 
Q 2534 397 2845 478 
Q 3156 559 3463 722 
L 3463 178 
Q 3153 47 2828 -22 
Q 2503 -91 2169 -91 
Q 1331 -91 842 396 
Q 353 884 353 1716 
Q 353 2575 817 3079 
Q 1281 3584 2069 3584 
Q 2775 3584 3186 3129 
Q 3597 2675 3597 1894 
z
M 3022 2063 
Q 3016 2534 2758 2815 
Q 2500 3097 2075 3097 
Q 1594 3097 1305 2825 
Q 1016 2553 972 2059 
L 3022 2063 
z
" transform="scale(0.015625)"/>
       <path id="DejaVuSans-61" d="M 2194 1759 
Q 1497 1759 1228 1600 
Q 959 1441 959 1056 
Q 959 750 1161 570 
Q 1363 391 1709 391 
Q 2188 391 2477 730 
Q 2766 1069 2766 1631 
L 2766 1759 
L 2194 1759 
z
M 3341 1997 
L 3341 0 
L 2766 0 
L 2766 531 
Q 2569 213 2275 61 
Q 1981 -91 1556 -91 
Q 1019 -91 701 211 
Q 384 513 384 1019 
Q 384 1609 779 1909 
Q 1175 2209 1959 2209 
L 2766 2209 
L 2766 2266 
Q 2766 2663 2505 2880 
Q 2244 3097 1772 3097 
Q 1472 3097 1187 3025 
Q 903 2953 641 2809 
L 641 3341 
Q 956 3463 1253 3523 
Q 1550 3584 1831 3584 
Q 2591 3584 2966 3190 
Q 3341 2797 3341 1997 
z
" transform="scale(0.015625)"/>
       <path id="DejaVuSans-72" d="M 2631 2963 
Q 2534 3019 2420 3045 
Q 2306 3072 2169 3072 
Q 1681 3072 1420 2755 
Q 1159 2438 1159 1844 
L 1159 0 
L 581 0 
L 581 3500 
L 1159 3500 
L 1159 2956 
Q 1341 3275 1631 3429 
Q 1922 3584 2338 3584 
Q 2397 3584 2469 3576 
Q 2541 3569 2628 3553 
L 2631 2963 
z
" transform="scale(0.015625)"/>
      </defs>
      <use xlink:href="#DejaVuSans-59"/>
      <use xlink:href="#DejaVuSans-65" x="47.833984"/>
      <use xlink:href="#DejaVuSans-61" x="109.357422"/>
      <use xlink:href="#DejaVuSans-72" x="170.636719"/>
     </g>
    </g>
   </g>
   <g id="matplotlib.axis_2">
    <g id="ytick_1">
     <g id="line2d_8">
      <defs>
       <path id="mb1af4683c6" d="M 0 0 
L -3.5 0 
" style="stroke: #000000; stroke-width: 0.8"/>
      </defs>
      <g>
       <use xlink:href="#mb1af4683c6" x="54" y="221.128643" style="stroke: #000000; stroke-width: 0.8"/>
      </g>
     </g>
     <g id="text_9">
      <!-- 160 -->
      <g transform="translate(27.9125 224.927861) scale(0.1 -0.1)">
       <use xlink:href="#DejaVuSans-31"/>
       <use xlink:href="#DejaVuSans-36" x="63.623047"/>
       <use xlink:href="#DejaVuSans-30" x="127.246094"/>
      </g>
     </g>
    </g>
    <g id="ytick_2">
     <g id="line2d_9">
      <g>
       <use xlink:href="#mb1af4683c6" x="54" y="188.90899" style="stroke: #000000; stroke-width: 0.8"/>
      </g>
     </g>
     <g id="text_10">
      <!-- 180 -->
      <g transform="translate(27.9125 192.708208) scale(0.1 -0.1)">
       <use xlink:href="#DejaVuSans-31"/>
       <use xlink:href="#DejaVuSans-38" x="63.623047"/>
       <use xlink:href="#DejaVuSans-30" x="127.246094"/>
      </g>
     </g>
    </g>
    <g id="ytick_3">
     <g id="line2d_10">
      <g>
       <use xlink:href="#mb1af4683c6" x="54" y="156.689336" style="stroke: #000000; stroke-width: 0.8"/>
      </g>
     </g>
     <g id="text_11">
      <!-- 200 -->
      <g transform="translate(27.9125 160.488555) scale(0.1 -0.1)">
       <use xlink:href="#DejaVuSans-32"/>
       <use xlink:href="#DejaVuSans-30" x="63.623047"/>
       <use xlink:href="#DejaVuSans-30" x="127.246094"/>
      </g>
     </g>
    </g>
    <g id="ytick_4">
     <g id="line2d_11">
      <g>
       <use xlink:href="#mb1af4683c6" x="54" y="124.469683" style="stroke: #000000; stroke-width: 0.8"/>
      </g>
     </g>
     <g id="text_12">
      <!-- 220 -->
      <g transform="translate(27.9125 128.268902) scale(0.1 -0.1)">
       <use xlink:href="#DejaVuSans-32"/>
       <use xlink:href="#DejaVuSans-32" x="63.623047"/>
       <use xlink:href="#DejaVuSans-30" x="127.246094"/>
      </g>
     </g>
    </g>
    <g id="ytick_5">
     <g id="line2d_12">
      <g>
       <use xlink:href="#mb1af4683c6" x="54" y="92.25003" style="stroke: #000000; stroke-width: 0.8"/>
      </g>
     </g>
     <g id="text_13">
      <!-- 240 -->
      <g transform="translate(27.9125 96.049249) scale(0.1 -0.1)">
       <defs>
        <path id="DejaVuSans-34" d="M 2419 4116 
L 825 1625 
L 2419 1625 
L 2419 4116 
z
M 2253 4666 
L 3047 4666 
L 3047 1625 
L 3713 1625 
L 3713 1100 
L 3047 1100 
L 3047 0 
L 2419 0 
L 2419 1100 
L 313 1100 
L 313 1709 
L 2253 4666 
z
" transform="scale(0.015625)"/>
       </defs>
       <use xlink:href="#DejaVuSans-32"/>
       <use xlink:href="#DejaVuSans-34" x="63.623047"/>
       <use xlink:href="#DejaVuSans-30" x="127.246094"/>
      </g>
     </g>
    </g>
    <g id="ytick_6">
     <g id="line2d_13">
      <g>
       <use xlink:href="#mb1af4683c6" x="54" y="60.030377" style="stroke: #000000; stroke-width: 0.8"/>
      </g>
     </g>
     <g id="text_14">
      <!-- 260 -->
      <g transform="translate(27.9125 63.829596) scale(0.1 -0.1)">
       <use xlink:href="#DejaVuSans-32"/>
       <use xlink:href="#DejaVuSans-36" x="63.623047"/>
       <use xlink:href="#DejaVuSans-30" x="127.246094"/>
      </g>
     </g>
    </g>
    <g id="text_15">
     <!-- Duration in secs -->
     <g transform="translate(21.832812 183.766719) rotate(-90) scale(0.1 -0.1)">
      <defs>
       <path id="DejaVuSans-44" d="M 1259 4147 
L 1259 519 
L 2022 519 
Q 2988 519 3436 956 
Q 3884 1394 3884 2338 
Q 3884 3275 3436 3711 
Q 2988 4147 2022 4147 
L 1259 4147 
z
M 628 4666 
L 1925 4666 
Q 3281 4666 3915 4102 
Q 4550 3538 4550 2338 
Q 4550 1131 3912 565 
Q 3275 0 1925 0 
L 628 0 
L 628 4666 
z
" transform="scale(0.015625)"/>
       <path id="DejaVuSans-75" d="M 544 1381 
L 544 3500 
L 1119 3500 
L 1119 1403 
Q 1119 906 1312 657 
Q 1506 409 1894 409 
Q 2359 409 2629 706 
Q 2900 1003 2900 1516 
L 2900 3500 
L 3475 3500 
L 3475 0 
L 2900 0 
L 2900 538 
Q 2691 219 2414 64 
Q 2138 -91 1772 -91 
Q 1169 -91 856 284 
Q 544 659 544 1381 
z
M 1991 3584 
L 1991 3584 
z
" transform="scale(0.015625)"/>
       <path id="DejaVuSans-74" d="M 1172 4494 
L 1172 3500 
L 2356 3500 
L 2356 3053 
L 1172 3053 
L 1172 1153 
Q 1172 725 1289 603 
Q 1406 481 1766 481 
L 2356 481 
L 2356 0 
L 1766 0 
Q 1100 0 847 248 
Q 594 497 594 1153 
L 594 3053 
L 172 3053 
L 172 3500 
L 594 3500 
L 594 4494 
L 1172 4494 
z
" transform="scale(0.015625)"/>
       <path id="DejaVuSans-69" d="M 603 3500 
L 1178 3500 
L 1178 0 
L 603 0 
L 603 3500 
z
M 603 4863 
L 1178 4863 
L 1178 4134 
L 603 4134 
L 603 4863 
z
" transform="scale(0.015625)"/>
       <path id="DejaVuSans-6f" d="M 1959 3097 
Q 1497 3097 1228 2736 
Q 959 2375 959 1747 
Q 959 1119 1226 758 
Q 1494 397 1959 397 
Q 2419 397 2687 759 
Q 2956 1122 2956 1747 
Q 2956 2369 2687 2733 
Q 2419 3097 1959 3097 
z
M 1959 3584 
Q 2709 3584 3137 3096 
Q 3566 2609 3566 1747 
Q 3566 888 3137 398 
Q 2709 -91 1959 -91 
Q 1206 -91 779 398 
Q 353 888 353 1747 
Q 353 2609 779 3096 
Q 1206 3584 1959 3584 
z
" transform="scale(0.015625)"/>
       <path id="DejaVuSans-6e" d="M 3513 2113 
L 3513 0 
L 2938 0 
L 2938 2094 
Q 2938 2591 2744 2837 
Q 2550 3084 2163 3084 
Q 1697 3084 1428 2787 
Q 1159 2491 1159 1978 
L 1159 0 
L 581 0 
L 581 3500 
L 1159 3500 
L 1159 2956 
Q 1366 3272 1645 3428 
Q 1925 3584 2291 3584 
Q 2894 3584 3203 3211 
Q 3513 2838 3513 2113 
z
" transform="scale(0.015625)"/>
       <path id="DejaVuSans-20" transform="scale(0.015625)"/>
       <path id="DejaVuSans-73" d="M 2834 3397 
L 2834 2853 
Q 2591 2978 2328 3040 
Q 2066 3103 1784 3103 
Q 1356 3103 1142 2972 
Q 928 2841 928 2578 
Q 928 2378 1081 2264 
Q 1234 2150 1697 2047 
L 1894 2003 
Q 2506 1872 2764 1633 
Q 3022 1394 3022 966 
Q 3022 478 2636 193 
Q 2250 -91 1575 -91 
Q 1294 -91 989 -36 
Q 684 19 347 128 
L 347 722 
Q 666 556 975 473 
Q 1284 391 1588 391 
Q 1994 391 2212 530 
Q 2431 669 2431 922 
Q 2431 1156 2273 1281 
Q 2116 1406 1581 1522 
L 1381 1569 
Q 847 1681 609 1914 
Q 372 2147 372 2553 
Q 372 3047 722 3315 
Q 1072 3584 1716 3584 
Q 2034 3584 2315 3537 
Q 2597 3491 2834 3397 
z
" transform="scale(0.015625)"/>
       <path id="DejaVuSans-63" d="M 3122 3366 
L 3122 2828 
Q 2878 2963 2633 3030 
Q 2388 3097 2138 3097 
Q 1578 3097 1268 2742 
Q 959 2388 959 1747 
Q 959 1106 1268 751 
Q 1578 397 2138 397 
Q 2388 397 2633 464 
Q 2878 531 3122 666 
L 3122 134 
Q 2881 22 2623 -34 
Q 2366 -91 2075 -91 
Q 1284 -91 818 406 
Q 353 903 353 1747 
Q 353 2603 823 3093 
Q 1294 3584 2113 3584 
Q 2378 3584 2631 3529 
Q 2884 3475 3122 3366 
z
" transform="scale(0.015625)"/>
      </defs>
      <use xlink:href="#DejaVuSans-44"/>
      <use xlink:href="#DejaVuSans-75" x="77.001953"/>
      <use xlink:href="#DejaVuSans-72" x="140.380859"/>
      <use xlink:href="#DejaVuSans-61" x="181.494141"/>
      <use xlink:href="#DejaVuSans-74" x="242.773438"/>
      <use xlink:href="#DejaVuSans-69" x="281.982422"/>
      <use xlink:href="#DejaVuSans-6f" x="309.765625"/>
      <use xlink:href="#DejaVuSans-6e" x="370.947266"/>
      <use xlink:href="#DejaVuSans-20" x="434.326172"/>
      <use xlink:href="#DejaVuSans-69" x="466.113281"/>
      <use xlink:href="#DejaVuSans-6e" x="493.896484"/>
      <use xlink:href="#DejaVuSans-20" x="557.275391"/>
      <use xlink:href="#DejaVuSans-73" x="589.0625"/>
      <use xlink:href="#DejaVuSans-65" x="641.162109"/>
      <use xlink:href="#DejaVuSans-63" x="702.685547"/>
      <use xlink:href="#DejaVuSans-73" x="757.666016"/>
     </g>
    </g>
   </g>
   <g id="line2d_14">
    <path d="M 69.218182 206.313983 
L 73.900699 199.543916 
L 78.583217 192.968342 
L 83.265734 186.587261 
L 87.948252 180.400675 
L 92.630769 174.408581 
L 97.313287 168.610981 
L 101.995804 163.007874 
L 106.678322 157.599261 
L 111.360839 152.385141 
L 116.043357 147.365515 
L 120.725874 142.540382 
L 125.408392 137.909742 
L 130.090909 133.473596 
L 134.773427 129.231943 
L 139.455944 125.184784 
L 144.138462 121.332118 
L 148.820979 117.673945 
L 153.503497 114.210266 
L 158.186014 110.941081 
L 162.868531 107.866388 
L 167.551049 104.98619 
L 172.233566 102.300484 
L 176.916084 99.809272 
L 181.598601 97.512554 
L 186.281119 95.410328 
L 190.963636 93.502597 
L 195.646154 91.789358 
L 200.328671 90.270614 
L 205.011189 88.946362 
L 209.693706 87.816604 
L 214.376224 86.881339 
L 219.058741 86.140568 
L 223.741259 85.59429 
L 228.423776 85.242506 
L 233.106294 85.085215 
L 237.788811 85.122417 
L 242.471329 85.354113 
L 247.153846 85.780303 
L 251.836364 86.400985 
L 256.518881 87.216161 
L 261.201399 88.225831 
L 265.883916 89.429994 
L 270.566434 90.82865 
L 275.248951 92.4218 
L 279.931469 94.209443 
L 284.613986 96.19158 
L 289.296503 98.36821 
L 293.979021 100.739333 
L 298.661538 103.30495 
L 303.344056 106.065061 
L 308.026573 109.019664 
L 312.709091 112.168761 
L 317.391608 115.512352 
L 322.074126 119.050436 
L 326.756643 122.783013 
L 331.439161 126.710084 
L 336.121678 130.831648 
L 340.804196 135.147706 
L 345.486713 139.658257 
L 350.169231 144.363302 
L 354.851748 149.26284 
L 359.534266 154.356871 
L 364.216783 159.645396 
L 368.899301 165.128414 
L 373.581818 170.805925 
" clip-path="url(#pf14223b2e4)" style="fill: none; stroke: #2f4f4f; stroke-width: 1.5; stroke-linecap: square"/>
   </g>
   <g id="patch_3">
    <path d="M 54 252 
L 54 34.56 
" style="fill: none; stroke: #000000; stroke-width: 0.8; stroke-linejoin: miter; stroke-linecap: square"/>
   </g>
   <g id="patch_4">
    <path d="M 388.8 252 
L 388.8 34.56 
" style="fill: none; stroke: #000000; stroke-width: 0.8; stroke-linejoin: miter; stroke-linecap: square"/>
   </g>
   <g id="patch_5">
    <path d="M 54 252 
L 388.8 252 
" style="fill: none; stroke: #000000; stroke-width: 0.8; stroke-linejoin: miter; stroke-linecap: square"/>
   </g>
   <g id="patch_6">
    <path d="M 54 34.56 
L 388.8 34.56 
" style="fill: none; stroke: #000000; stroke-width: 0.8; stroke-linejoin: miter; stroke-linecap: square"/>
   </g>
   <g id="text_16">
    <!-- Mean of the duration of the Top 10 songs per year with regression -->
    <g transform="translate(23.037188 28.56) scale(0.12 -0.12)">
     <defs>
      <path id="DejaVuSans-4d" d="M 628 4666 
L 1569 4666 
L 2759 1491 
L 3956 4666 
L 4897 4666 
L 4897 0 
L 4281 0 
L 4281 4097 
L 3078 897 
L 2444 897 
L 1241 4097 
L 1241 0 
L 628 0 
L 628 4666 
z
" transform="scale(0.015625)"/>
      <path id="DejaVuSans-66" d="M 2375 4863 
L 2375 4384 
L 1825 4384 
Q 1516 4384 1395 4259 
Q 1275 4134 1275 3809 
L 1275 3500 
L 2222 3500 
L 2222 3053 
L 1275 3053 
L 1275 0 
L 697 0 
L 697 3053 
L 147 3053 
L 147 3500 
L 697 3500 
L 697 3744 
Q 697 4328 969 4595 
Q 1241 4863 1831 4863 
L 2375 4863 
z
" transform="scale(0.015625)"/>
      <path id="DejaVuSans-68" d="M 3513 2113 
L 3513 0 
L 2938 0 
L 2938 2094 
Q 2938 2591 2744 2837 
Q 2550 3084 2163 3084 
Q 1697 3084 1428 2787 
Q 1159 2491 1159 1978 
L 1159 0 
L 581 0 
L 581 4863 
L 1159 4863 
L 1159 2956 
Q 1366 3272 1645 3428 
Q 1925 3584 2291 3584 
Q 2894 3584 3203 3211 
Q 3513 2838 3513 2113 
z
" transform="scale(0.015625)"/>
      <path id="DejaVuSans-64" d="M 2906 2969 
L 2906 4863 
L 3481 4863 
L 3481 0 
L 2906 0 
L 2906 525 
Q 2725 213 2448 61 
Q 2172 -91 1784 -91 
Q 1150 -91 751 415 
Q 353 922 353 1747 
Q 353 2572 751 3078 
Q 1150 3584 1784 3584 
Q 2172 3584 2448 3432 
Q 2725 3281 2906 2969 
z
M 947 1747 
Q 947 1113 1208 752 
Q 1469 391 1925 391 
Q 2381 391 2643 752 
Q 2906 1113 2906 1747 
Q 2906 2381 2643 2742 
Q 2381 3103 1925 3103 
Q 1469 3103 1208 2742 
Q 947 2381 947 1747 
z
" transform="scale(0.015625)"/>
      <path id="DejaVuSans-54" d="M -19 4666 
L 3928 4666 
L 3928 4134 
L 2272 4134 
L 2272 0 
L 1638 0 
L 1638 4134 
L -19 4134 
L -19 4666 
z
" transform="scale(0.015625)"/>
      <path id="DejaVuSans-70" d="M 1159 525 
L 1159 -1331 
L 581 -1331 
L 581 3500 
L 1159 3500 
L 1159 2969 
Q 1341 3281 1617 3432 
Q 1894 3584 2278 3584 
Q 2916 3584 3314 3078 
Q 3713 2572 3713 1747 
Q 3713 922 3314 415 
Q 2916 -91 2278 -91 
Q 1894 -91 1617 61 
Q 1341 213 1159 525 
z
M 3116 1747 
Q 3116 2381 2855 2742 
Q 2594 3103 2138 3103 
Q 1681 3103 1420 2742 
Q 1159 2381 1159 1747 
Q 1159 1113 1420 752 
Q 1681 391 2138 391 
Q 2594 391 2855 752 
Q 3116 1113 3116 1747 
z
" transform="scale(0.015625)"/>
      <path id="DejaVuSans-67" d="M 2906 1791 
Q 2906 2416 2648 2759 
Q 2391 3103 1925 3103 
Q 1463 3103 1205 2759 
Q 947 2416 947 1791 
Q 947 1169 1205 825 
Q 1463 481 1925 481 
Q 2391 481 2648 825 
Q 2906 1169 2906 1791 
z
M 3481 434 
Q 3481 -459 3084 -895 
Q 2688 -1331 1869 -1331 
Q 1566 -1331 1297 -1286 
Q 1028 -1241 775 -1147 
L 775 -588 
Q 1028 -725 1275 -790 
Q 1522 -856 1778 -856 
Q 2344 -856 2625 -561 
Q 2906 -266 2906 331 
L 2906 616 
Q 2728 306 2450 153 
Q 2172 0 1784 0 
Q 1141 0 747 490 
Q 353 981 353 1791 
Q 353 2603 747 3093 
Q 1141 3584 1784 3584 
Q 2172 3584 2450 3431 
Q 2728 3278 2906 2969 
L 2906 3500 
L 3481 3500 
L 3481 434 
z
" transform="scale(0.015625)"/>
      <path id="DejaVuSans-79" d="M 2059 -325 
Q 1816 -950 1584 -1140 
Q 1353 -1331 966 -1331 
L 506 -1331 
L 506 -850 
L 844 -850 
Q 1081 -850 1212 -737 
Q 1344 -625 1503 -206 
L 1606 56 
L 191 3500 
L 800 3500 
L 1894 763 
L 2988 3500 
L 3597 3500 
L 2059 -325 
z
" transform="scale(0.015625)"/>
      <path id="DejaVuSans-77" d="M 269 3500 
L 844 3500 
L 1563 769 
L 2278 3500 
L 2956 3500 
L 3675 769 
L 4391 3500 
L 4966 3500 
L 4050 0 
L 3372 0 
L 2619 2869 
L 1863 0 
L 1184 0 
L 269 3500 
z
" transform="scale(0.015625)"/>
     </defs>
     <use xlink:href="#DejaVuSans-4d"/>
     <use xlink:href="#DejaVuSans-65" x="86.279297"/>
     <use xlink:href="#DejaVuSans-61" x="147.802734"/>
     <use xlink:href="#DejaVuSans-6e" x="209.082031"/>
     <use xlink:href="#DejaVuSans-20" x="272.460938"/>
     <use xlink:href="#DejaVuSans-6f" x="304.248047"/>
     <use xlink:href="#DejaVuSans-66" x="365.429688"/>
     <use xlink:href="#DejaVuSans-20" x="400.634766"/>
     <use xlink:href="#DejaVuSans-74" x="432.421875"/>
     <use xlink:href="#DejaVuSans-68" x="471.630859"/>
     <use xlink:href="#DejaVuSans-65" x="535.009766"/>
     <use xlink:href="#DejaVuSans-20" x="596.533203"/>
     <use xlink:href="#DejaVuSans-64" x="628.320312"/>
     <use xlink:href="#DejaVuSans-75" x="691.796875"/>
     <use xlink:href="#DejaVuSans-72" x="755.175781"/>
     <use xlink:href="#DejaVuSans-61" x="796.289062"/>
     <use xlink:href="#DejaVuSans-74" x="857.568359"/>
     <use xlink:href="#DejaVuSans-69" x="896.777344"/>
     <use xlink:href="#DejaVuSans-6f" x="924.560547"/>
     <use xlink:href="#DejaVuSans-6e" x="985.742188"/>
     <use xlink:href="#DejaVuSans-20" x="1049.121094"/>
     <use xlink:href="#DejaVuSans-6f" x="1080.908203"/>
     <use xlink:href="#DejaVuSans-66" x="1142.089844"/>
     <use xlink:href="#DejaVuSans-20" x="1177.294922"/>
     <use xlink:href="#DejaVuSans-74" x="1209.082031"/>
     <use xlink:href="#DejaVuSans-68" x="1248.291016"/>
     <use xlink:href="#DejaVuSans-65" x="1311.669922"/>
     <use xlink:href="#DejaVuSans-20" x="1373.193359"/>
     <use xlink:href="#DejaVuSans-54" x="1404.980469"/>
     <use xlink:href="#DejaVuSans-6f" x="1449.064453"/>
     <use xlink:href="#DejaVuSans-70" x="1510.246094"/>
     <use xlink:href="#DejaVuSans-20" x="1573.722656"/>
     <use xlink:href="#DejaVuSans-31" x="1605.509766"/>
     <use xlink:href="#DejaVuSans-30" x="1669.132812"/>
     <use xlink:href="#DejaVuSans-20" x="1732.755859"/>
     <use xlink:href="#DejaVuSans-73" x="1764.542969"/>
     <use xlink:href="#DejaVuSans-6f" x="1816.642578"/>
     <use xlink:href="#DejaVuSans-6e" x="1877.824219"/>
     <use xlink:href="#DejaVuSans-67" x="1941.203125"/>
     <use xlink:href="#DejaVuSans-73" x="2004.679688"/>
     <use xlink:href="#DejaVuSans-20" x="2056.779297"/>
     <use xlink:href="#DejaVuSans-70" x="2088.566406"/>
     <use xlink:href="#DejaVuSans-65" x="2152.042969"/>
     <use xlink:href="#DejaVuSans-72" x="2213.566406"/>
     <use xlink:href="#DejaVuSans-20" x="2254.679688"/>
     <use xlink:href="#DejaVuSans-79" x="2286.466797"/>
     <use xlink:href="#DejaVuSans-65" x="2345.646484"/>
     <use xlink:href="#DejaVuSans-61" x="2407.169922"/>
     <use xlink:href="#DejaVuSans-72" x="2468.449219"/>
     <use xlink:href="#DejaVuSans-20" x="2509.5625"/>
     <use xlink:href="#DejaVuSans-77" x="2541.349609"/>
     <use xlink:href="#DejaVuSans-69" x="2623.136719"/>
     <use xlink:href="#DejaVuSans-74" x="2650.919922"/>
     <use xlink:href="#DejaVuSans-68" x="2690.128906"/>
     <use xlink:href="#DejaVuSans-20" x="2753.507812"/>
     <use xlink:href="#DejaVuSans-72" x="2785.294922"/>
     <use xlink:href="#DejaVuSans-65" x="2824.158203"/>
     <use xlink:href="#DejaVuSans-67" x="2885.681641"/>
     <use xlink:href="#DejaVuSans-72" x="2949.158203"/>
     <use xlink:href="#DejaVuSans-65" x="2988.021484"/>
     <use xlink:href="#DejaVuSans-73" x="3049.544922"/>
     <use xlink:href="#DejaVuSans-73" x="3101.644531"/>
     <use xlink:href="#DejaVuSans-69" x="3153.744141"/>
     <use xlink:href="#DejaVuSans-6f" x="3181.527344"/>
     <use xlink:href="#DejaVuSans-6e" x="3242.708984"/>
    </g>
   </g>
  </g>
 </g>
 <defs>
  <clipPath id="pf14223b2e4">
   <rect x="54" y="34.56" width="334.8" height="217.44"/>
  </clipPath>
 </defs>
</svg>
